<svg width="200" height="187.680135420015" viewBox="0 0 200 187.680135420015">
    <defs id="LogoDefs">
        <linearGradient id="GoldenGradient">
            <stop id="SvgjsStop1016" stop-color="#fbb040" offset="0"/>
            <stop id="SvgjsStop1017" stop-color="#f9ed32" offset="1"/>
        </linearGradient>
    </defs>
    <g id="Logo" featurekey="symbolFeature-0" transform="matrix(0.9998374779286763,0,0,0.9998374779286763,50.48509644000382,-23.314525765045634)" fill="url(#GoldenGradient)">
        <path xmlns="http://www.w3.org/2000/svg" class="logo-cls" d="M81.61,82V77.83a1.1,1.1,0,0,0-1.1-1.1H78L94.47,59.1a1.1,1.1,0,0,0,0-1.54L74.09,37.95l4.1-4.43A1.1,1.1,0,0,0,78.13,32L76,30l2.12-2.29a1.1,1.1,0,0,0-.06-1.55l-2.75-2.55a1.06,1.06,0,0,0-.79-0.29,1.09,1.09,0,0,0-.76.35L71.67,26,70,24.43a1.1,1.1,0,0,0-1.55.06l-11.11,12A16.81,16.81,0,0,0,53,35.91,20.92,20.92,0,0,0,37.72,43a1.1,1.1,0,0,0,.07,1.55l23.58,21.5A1.1,1.1,0,0,0,62.91,66c5.59-6.13,7.1-14.38,4.43-20.76l5.25-5.67L92.13,58.39,74.94,76.73H70.33a1.1,1.1,0,0,0-1.1,1.1V82c-6.88,1.61-11.81,5.95-13.13,12a1.1,1.1,0,0,0,1.07,1.33H93.66A1.1,1.1,0,0,0,94.74,94C93.41,87.94,88.48,83.61,81.61,82Zm-7-56L75.79,27l-1.37,1.48-1.14-1.06ZM62,63.68l-21.91-20A18.55,18.55,0,0,1,53,38.11a14.41,14.41,0,0,1,4.32.66h0a13.26,13.26,0,0,1,2.57,1.12h0c0.37,0.21.72,0.44,1.06,0.68l0.12,0.08a12.42,12.42,0,0,1,1,.85,12.75,12.75,0,0,1,.92.94c0.16,0.19.32,0.38,0.47,0.58l0.31,0.4q0.29,0.4.55,0.83l0.11,0.17c0.19,0.33.38,0.67,0.55,1C67.64,50.88,66.59,58.09,62,63.68Zm3.21-22L65,41.34a14.86,14.86,0,0,0-1.36-1.44,15.13,15.13,0,0,0-1.8-1.39l-0.18-.12a15,15,0,0,0-2.07-1.11l9.72-10.49L71,28.33h0l2.75,2.55h0l2.1,1.95L66.28,43.14,66.21,43A14.82,14.82,0,0,0,65.22,41.63Zm6.21,37.3h8v2.65a28.08,28.08,0,0,0-8,0V78.93ZM58.62,93.09c2-5.88,8.45-9.61,16.8-9.61s14.77,3.73,16.8,9.61H58.62Z" style="fill:url(#GoldenGradient)"/>
        <path xmlns="http://www.w3.org/2000/svg" class="logo-cls" d="M11.45,82.87a5.94,5.94,0,0,0,0,11.88H51.21v-1.5H11.45a4.44,4.44,0,0,1,0-8.88H51.21v-1.5H11.45Z" style="fill:url(#GoldenGradient)"/>
        <rect xmlns="http://www.w3.org/2000/svg" class="logo-cls" x="9.92" y="85.33" width="41.28" height="1.5" style="fill:url(#GoldenGradient)"/>
        <rect xmlns="http://www.w3.org/2000/svg" class="logo-cls" x="9.92" y="87.99" width="41.28" height="1.5" style="fill:url(#GoldenGradient)"/>
        <rect xmlns="http://www.w3.org/2000/svg" class="logo-cls" x="9.92" y="90.84" width="41.28" height="1.5" style="fill:url(#GoldenGradient)"/>
        <path xmlns="http://www.w3.org/2000/svg" class="logo-cls" d="M48.32,74.79a6,6,0,0,0-5.94-5.94H12.12v1.5H42.38a4.44,4.44,0,1,1,0,8.88H12.12v1.5H42.38A6,6,0,0,0,48.32,74.79Z" style="fill:url(#GoldenGradient)"/>
        <rect xmlns="http://www.w3.org/2000/svg" class="logo-cls" x="12.12" y="76.95" width="31.78" height="1.5" style="fill:url(#GoldenGradient)"/>
        <rect xmlns="http://www.w3.org/2000/svg" class="logo-cls" x="12.12" y="74.11" width="31.78" height="1.5" style="fill:url(#GoldenGradient)"/>
        <rect xmlns="http://www.w3.org/2000/svg" class="logo-cls" x="12.12" y="71.26" width="31.78" height="1.5" style="fill:url(#GoldenGradient)"/>
    </g>
</svg>
